<mxfile host="65bd71144e">
    <diagram id="LV__fBx8WHeKDzXfsFmI" name="class">
        <mxGraphModel dx="2678" dy="1147" grid="1" gridSize="10" guides="1" tooltips="1" connect="1" arrows="1" fold="1" page="1" pageScale="1" pageWidth="850" pageHeight="1100" math="0" shadow="0">
            <root>
                <mxCell id="0"/>
                <mxCell id="1" parent="0"/>
                <mxCell id="7" value="MainWindow" style="swimlane;fontStyle=1;align=center;verticalAlign=top;childLayout=stackLayout;horizontal=1;startSize=26;horizontalStack=0;resizeParent=1;resizeParentMax=0;resizeLast=0;collapsible=1;marginBottom=0;" parent="1" vertex="1">
                    <mxGeometry x="310" y="340" width="160" height="216" as="geometry"/>
                </mxCell>
                <mxCell id="8" value="-petri: petri::Petri&amp;" style="text;strokeColor=none;fillColor=none;align=left;verticalAlign=top;spacingLeft=4;spacingRight=4;overflow=hidden;rotatable=0;points=[[0,0.5],[1,0.5]];portConstraint=eastwest;" parent="7" vertex="1">
                    <mxGeometry y="26" width="160" height="26" as="geometry"/>
                </mxCell>
                <mxCell id="12" value="-ui: UI::MainWindos* " style="text;strokeColor=none;fillColor=none;align=left;verticalAlign=top;spacingLeft=4;spacingRight=4;overflow=hidden;rotatable=0;points=[[0,0.5],[1,0.5]];portConstraint=eastwest;" parent="7" vertex="1">
                    <mxGeometry y="52" width="160" height="26" as="geometry"/>
                </mxCell>
                <mxCell id="11" value="-img: cv::Mat*" style="text;strokeColor=none;fillColor=none;align=left;verticalAlign=top;spacingLeft=4;spacingRight=4;overflow=hidden;rotatable=0;points=[[0,0.5],[1,0.5]];portConstraint=eastwest;" parent="7" vertex="1">
                    <mxGeometry y="78" width="160" height="26" as="geometry"/>
                </mxCell>
                <mxCell id="9" value="" style="line;strokeWidth=1;fillColor=none;align=left;verticalAlign=middle;spacingTop=-1;spacingLeft=3;spacingRight=3;rotatable=0;labelPosition=right;points=[];portConstraint=eastwest;strokeColor=inherit;" parent="7" vertex="1">
                    <mxGeometry y="104" width="160" height="8" as="geometry"/>
                </mxCell>
                <mxCell id="13" value="-circleColonies(): void" style="text;strokeColor=none;fillColor=none;align=left;verticalAlign=top;spacingLeft=4;spacingRight=4;overflow=hidden;rotatable=0;points=[[0,0.5],[1,0.5]];portConstraint=eastwest;" parent="7" vertex="1">
                    <mxGeometry y="112" width="160" height="26" as="geometry"/>
                </mxCell>
                <mxCell id="10" value="-selectImg(): void" style="text;strokeColor=none;fillColor=none;align=left;verticalAlign=top;spacingLeft=4;spacingRight=4;overflow=hidden;rotatable=0;points=[[0,0.5],[1,0.5]];portConstraint=eastwest;" parent="7" vertex="1">
                    <mxGeometry y="138" width="160" height="26" as="geometry"/>
                </mxCell>
                <mxCell id="15" value="+MainWindow(QWidget*)" style="text;strokeColor=none;fillColor=none;align=left;verticalAlign=top;spacingLeft=4;spacingRight=4;overflow=hidden;rotatable=0;points=[[0,0.5],[1,0.5]];portConstraint=eastwest;" parent="7" vertex="1">
                    <mxGeometry y="164" width="160" height="26" as="geometry"/>
                </mxCell>
                <mxCell id="14" value="+~MainWindow()" style="text;strokeColor=none;fillColor=none;align=left;verticalAlign=top;spacingLeft=4;spacingRight=4;overflow=hidden;rotatable=0;points=[[0,0.5],[1,0.5]];portConstraint=eastwest;" parent="7" vertex="1">
                    <mxGeometry y="190" width="160" height="26" as="geometry"/>
                </mxCell>
                <mxCell id="16" value="QMainWindow" style="swimlane;fontStyle=0;childLayout=stackLayout;horizontal=1;startSize=26;fillColor=none;horizontalStack=0;resizeParent=1;resizeParentMax=0;resizeLast=0;collapsible=1;marginBottom=0;" parent="1" vertex="1">
                    <mxGeometry x="210" y="170" width="140" height="52" as="geometry"/>
                </mxCell>
                <mxCell id="20" value="" style="endArrow=block;endSize=16;endFill=0;html=1;entryX=0.5;entryY=1;entryDx=0;entryDy=0;exitX=0;exitY=0;exitDx=0;exitDy=0;" edge="1" parent="1" source="7" target="16">
                    <mxGeometry width="160" relative="1" as="geometry">
                        <mxPoint x="340" y="580" as="sourcePoint"/>
                        <mxPoint x="500" y="580" as="targetPoint"/>
                    </mxGeometry>
                </mxCell>
                <mxCell id="21" value="Petri" style="swimlane;fontStyle=1;align=center;verticalAlign=top;childLayout=stackLayout;horizontal=1;startSize=26;horizontalStack=0;resizeParent=1;resizeParentMax=0;resizeLast=0;collapsible=1;marginBottom=0;" vertex="1" parent="1">
                    <mxGeometry x="480" y="136" width="330" height="140" as="geometry"/>
                </mxCell>
                <mxCell id="23" value="" style="line;strokeWidth=1;fillColor=none;align=left;verticalAlign=middle;spacingTop=-1;spacingLeft=3;spacingRight=3;rotatable=0;labelPosition=right;points=[];portConstraint=eastwest;strokeColor=inherit;" vertex="1" parent="21">
                    <mxGeometry y="26" width="330" height="8" as="geometry"/>
                </mxCell>
                <mxCell id="24" value="+circleRoundColonies( const cv::Mat&amp; img,  &#10;                                    cv::Mat&amp; outImg,&#10;                                    int threshold,&#10;                                    double circularityThresh, &#10;                                    int gaussianKernelSize,            &#10;                                    RoundColours colour ) : int" style="text;strokeColor=none;fillColor=none;align=left;verticalAlign=top;spacingLeft=4;spacingRight=4;overflow=hidden;rotatable=0;points=[[0,0.5],[1,0.5]];portConstraint=eastwest;" vertex="1" parent="21">
                    <mxGeometry y="34" width="330" height="106" as="geometry"/>
                </mxCell>
                <mxCell id="25" value="" style="endArrow=open;endFill=1;endSize=12;html=1;entryX=0;entryY=0.5;entryDx=0;entryDy=0;exitX=1;exitY=0;exitDx=0;exitDy=0;" edge="1" parent="1" source="7" target="24">
                    <mxGeometry width="160" relative="1" as="geometry">
                        <mxPoint x="340" y="580" as="sourcePoint"/>
                        <mxPoint x="500" y="580" as="targetPoint"/>
                    </mxGeometry>
                </mxCell>
            </root>
        </mxGraphModel>
    </diagram>
    <diagram id="cutDQYFGZEgl3K1imxXJ" name="method">
        <mxGraphModel dx="3528" dy="1147" grid="1" gridSize="10" guides="1" tooltips="1" connect="1" arrows="1" fold="1" page="1" pageScale="1" pageWidth="850" pageHeight="1100" math="1" shadow="0">
            <root>
                <mxCell id="0"/>
                <mxCell id="1" parent="0"/>
                <mxCell id="fONYKMSI8NuaWJJrChns-4" style="edgeStyle=none;html=1;entryX=0.5;entryY=0;entryDx=0;entryDy=0;" edge="1" parent="1" source="fONYKMSI8NuaWJJrChns-1" target="fONYKMSI8NuaWJJrChns-3">
                    <mxGeometry relative="1" as="geometry"/>
                </mxCell>
                <mxCell id="fONYKMSI8NuaWJJrChns-1" value="main()" style="html=1;" vertex="1" parent="1">
                    <mxGeometry x="300" y="430" width="110" height="50" as="geometry"/>
                </mxCell>
                <mxCell id="fONYKMSI8NuaWJJrChns-3" value="MainWindow::show()" style="html=1;" vertex="1" parent="1">
                    <mxGeometry x="260" y="540" width="190" height="80" as="geometry"/>
                </mxCell>
                <mxCell id="fONYKMSI8NuaWJJrChns-10" style="edgeStyle=none;html=1;entryX=0.5;entryY=0;entryDx=0;entryDy=0;" edge="1" parent="1" source="fONYKMSI8NuaWJJrChns-5" target="fONYKMSI8NuaWJJrChns-9">
                    <mxGeometry relative="1" as="geometry">
                        <mxPoint x="185" y="820" as="targetPoint"/>
                    </mxGeometry>
                </mxCell>
                <mxCell id="fONYKMSI8NuaWJJrChns-5" value="MainWindow::circleColonies()" style="html=1;" vertex="1" parent="1">
                    <mxGeometry x="90" y="700" width="190" height="90" as="geometry"/>
                </mxCell>
                <mxCell id="fONYKMSI8NuaWJJrChns-6" value="MainWindow::selecImg()" style="html=1;" vertex="1" parent="1">
                    <mxGeometry x="460" y="700" width="190" height="90" as="geometry"/>
                </mxCell>
                <mxCell id="fONYKMSI8NuaWJJrChns-7" value="" style="endArrow=none;dashed=1;html=1;exitX=1;exitY=1;exitDx=0;exitDy=0;entryX=0.5;entryY=0;entryDx=0;entryDy=0;" edge="1" parent="1" source="fONYKMSI8NuaWJJrChns-3" target="fONYKMSI8NuaWJJrChns-6">
                    <mxGeometry width="50" height="50" relative="1" as="geometry">
                        <mxPoint x="330" y="810" as="sourcePoint"/>
                        <mxPoint x="380" y="760" as="targetPoint"/>
                    </mxGeometry>
                </mxCell>
                <mxCell id="fONYKMSI8NuaWJJrChns-8" value="" style="endArrow=none;dashed=1;html=1;exitX=0;exitY=1;exitDx=0;exitDy=0;entryX=0.5;entryY=0;entryDx=0;entryDy=0;" edge="1" parent="1" source="fONYKMSI8NuaWJJrChns-3" target="fONYKMSI8NuaWJJrChns-5">
                    <mxGeometry width="50" height="50" relative="1" as="geometry">
                        <mxPoint x="330" y="810" as="sourcePoint"/>
                        <mxPoint x="280" y="690" as="targetPoint"/>
                    </mxGeometry>
                </mxCell>
                <mxCell id="fONYKMSI8NuaWJJrChns-14" style="edgeStyle=none;html=1;exitX=0;exitY=1;exitDx=0;exitDy=0;entryX=0.5;entryY=0;entryDx=0;entryDy=0;" edge="1" parent="1" source="fONYKMSI8NuaWJJrChns-9" target="fONYKMSI8NuaWJJrChns-13">
                    <mxGeometry relative="1" as="geometry"/>
                </mxCell>
                <mxCell id="fONYKMSI8NuaWJJrChns-16" style="edgeStyle=none;html=1;exitX=0.25;exitY=1;exitDx=0;exitDy=0;entryX=0.5;entryY=0;entryDx=0;entryDy=0;" edge="1" parent="1" source="fONYKMSI8NuaWJJrChns-9" target="fONYKMSI8NuaWJJrChns-11">
                    <mxGeometry relative="1" as="geometry"/>
                </mxCell>
                <mxCell id="fONYKMSI8NuaWJJrChns-18" style="edgeStyle=none;html=1;exitX=0.5;exitY=1;exitDx=0;exitDy=0;entryX=0.5;entryY=0;entryDx=0;entryDy=0;" edge="1" parent="1" source="fONYKMSI8NuaWJJrChns-9" target="fONYKMSI8NuaWJJrChns-17">
                    <mxGeometry relative="1" as="geometry"/>
                </mxCell>
                <mxCell id="fONYKMSI8NuaWJJrChns-20" style="edgeStyle=none;html=1;exitX=0;exitY=0.5;exitDx=0;exitDy=0;entryX=0.5;entryY=0;entryDx=0;entryDy=0;" edge="1" parent="1" source="fONYKMSI8NuaWJJrChns-9" target="fONYKMSI8NuaWJJrChns-19">
                    <mxGeometry relative="1" as="geometry"/>
                </mxCell>
                <mxCell id="fONYKMSI8NuaWJJrChns-9" value="Petri::circleRoundColonies()" style="html=1;" vertex="1" parent="1">
                    <mxGeometry x="90" y="830" width="190" height="90" as="geometry"/>
                </mxCell>
                <mxCell id="fONYKMSI8NuaWJJrChns-11" value="thresholdImg()" style="rounded=0;whiteSpace=wrap;html=1;" vertex="1" parent="1">
                    <mxGeometry x="125" y="990" width="120" height="60" as="geometry"/>
                </mxCell>
                <mxCell id="fONYKMSI8NuaWJJrChns-13" value="filterImg()" style="rounded=0;whiteSpace=wrap;html=1;" vertex="1" parent="1">
                    <mxGeometry y="990" width="120" height="60" as="geometry"/>
                </mxCell>
                <mxCell id="fONYKMSI8NuaWJJrChns-17" value="getContoursByThresholdImg()" style="rounded=0;whiteSpace=wrap;html=1;" vertex="1" parent="1">
                    <mxGeometry x="245" y="990" width="220" height="60" as="geometry"/>
                </mxCell>
                <mxCell id="fONYKMSI8NuaWJJrChns-19" value="cv::drawContours()" style="rounded=0;whiteSpace=wrap;html=1;" vertex="1" parent="1">
                    <mxGeometry x="-220" y="990" width="220" height="60" as="geometry"/>
                </mxCell>
            </root>
        </mxGraphModel>
    </diagram>
</mxfile>